<?xml version="1.0" encoding="utf-8"?>
<!-- Generator: Adobe Illustrator 27.2.0, SVG Export Plug-In . SVG Version: 6.00 Build 0)  -->
<svg version="1.1" id="Layer_1" xmlns="http://www.w3.org/2000/svg" xmlns:xlink="http://www.w3.org/1999/xlink" x="0px" y="0px"
	 viewBox="0 0 187 75" style="enable-background:new 0 0 187 75;" xml:space="preserve">
<style type="text/css">
	.st0{fill:#303434;}
	.st1{fill:#7CCCBF;}
</style>
<g>
	<g>
		<path class="st0" d="M15.8,37.4l-3.7,21H7.6l5.3-30h6l4.8,23.8l13.2-23.8h6l-5.3,30h-4.5l3.7-21l-12,21h-4.5L15.8,37.4z"/>
		<path class="st0" d="M67.4,28.4c0.7,0,1.2,0.2,1.6,0.7c0.4,0.5,0.5,1.1,0.4,1.8l-4.4,25c-0.1,0.7-0.5,1.3-1,1.8
			c-0.6,0.5-1.2,0.7-1.9,0.7H43.6l4.5-25.5h-3l0.8-4.5H67.4z M52.6,32.9l-3.7,21h12l3.7-21H52.6z"/>
		<path class="st0" d="M75.8,37.4l-3.7,21h-4.5l5.3-30h6l4.8,23.8l13.2-23.8h6l-5.3,30h-4.5l3.7-21l-12,21h-4.5L75.8,37.4z"/>
		<path class="st1" d="M115.2,45.7h-12l1.6-4.5h12L115.2,45.7z"/>
		<path class="st1" d="M128.8,28.4l-9,25.5h10.5l-1.6,4.5h-15l10.6-30H128.8z"/>
		<path class="st1" d="M144.3,58.4l1-2.9c-2.6,1.9-5.1,2.9-7.8,2.9c-2.7,0-4.6-1-5.8-3.1c-1.2-2-1.2-4.5-0.2-7.4
			c1-2.9,2.8-5.4,5.5-7.4c2.6-2,5.3-3.1,8-3.1h11.2l-5.8,16.5h7.5l-6.1,4.5H144.3z M139.9,53.9c1.7,0,3.3-0.6,4.9-1.8
			c1.6-1.2,2.7-2.6,3.3-4.2l2.1-6h-6c-1.7,0-3.3,0.6-4.9,1.8c-1.6,1.2-2.7,2.6-3.2,4.2c-0.6,1.7-0.5,3.1,0.2,4.2
			C137,53.3,138.2,53.9,139.9,53.9z"/>
		<path class="st1" d="M177.7,41.9c0.6,1.7,0.5,3.7-0.3,6c-1,2.9-2.9,5.4-5.7,7.4c-2.8,2.1-5.6,3.1-8.5,3.1c-2.9,0-5-1-6.4-3.1
			c-1.3-2.1-1.5-4.5-0.5-7.4l6.9-19.5h4.5l-6.9,19.5c-0.6,1.7-0.5,3.1,0.2,4.2c0.8,1.2,2,1.8,3.6,1.8c1.7,0,3.3-0.6,4.9-1.8
			c1.6-1.2,2.7-2.6,3.3-4.2c0.6-1.7,0.5-3.1-0.3-4.3c-0.8-1.2-2-1.7-3.6-1.7c-0.6,0-1.1-0.2-1.3-0.7c-0.3-0.4-0.3-1-0.1-1.6
			c0.2-0.6,0.6-1.1,1.2-1.6c0.6-0.4,1.2-0.7,1.8-0.7h13.5l2.9,4.5H177.7z"/>
	</g>
	<polygon class="st1" points="13.8,22.5 6.9,28.4 7.9,22.5 	"/>
	<polygon class="st1" points="8.9,16.6 7.9,22.5 2,22.5 3,16.6 	"/>
	<polygon class="st1" points="6.9,28.4 0,34.4 1,28.4 	"/>
	<polygon class="st1" points="20.8,16.6 13.8,22.5 14.8,16.6 	"/>
</g>
</svg>
