<?xml version="1.0" encoding="utf-8"?>
<!-- Generator: Adobe Illustrator 27.2.0, SVG Export Plug-In . SVG Version: 6.00 Build 0)  -->
<svg version="1.1" id="Layer_1" xmlns="http://www.w3.org/2000/svg" xmlns:xlink="http://www.w3.org/1999/xlink" x="0px" y="0px"
	 viewBox="0 0 120 49" style="enable-background:new 0 0 120 49;" xml:space="preserve">
<style type="text/css">
	.st0{fill:#FFFFFF;}
	.st1{fill:#7CCCBF;}
</style>
<g>
	<g>
		<path class="st0" d="M10.2,24.4L7.8,37.9H4.9l3.4-19.2h3.8L15.2,34l8.5-15.3h3.8l-3.4,19.2h-2.9l2.4-13.5l-7.7,13.5h-2.9
			L10.2,24.4z"/>
		<path class="st0" d="M43.2,18.7c0.4,0,0.8,0.2,1,0.5c0.3,0.3,0.3,0.7,0.3,1.1l-2.8,16c-0.1,0.4-0.3,0.8-0.7,1.1
			c-0.4,0.3-0.8,0.5-1.2,0.5H28l2.9-16.4h-1.9l0.5-2.9H43.2z M33.7,21.6L31.4,35h7.7l2.4-13.5H33.7z"/>
		<path class="st0" d="M48.6,24.4l-2.4,13.5h-2.9l3.4-19.2h3.8L53.7,34l8.5-15.3H66l-3.4,19.2h-2.9l2.4-13.5l-7.7,13.5h-2.9
			L48.6,24.4z"/>
		<path class="st1" d="M73.9,29.8h-7.7l1-2.9h7.7L73.9,29.8z"/>
		<path class="st1" d="M82.6,18.7L76.9,35h6.7l-1,2.9H73l6.8-19.2H82.6z"/>
		<path class="st1" d="M92.6,37.9l0.7-1.9c-1.6,1.2-3.3,1.9-5,1.9c-1.7,0-3-0.7-3.7-2c-0.8-1.3-0.8-2.9-0.1-4.8
			c0.7-1.9,1.8-3.4,3.5-4.8c1.7-1.3,3.4-2,5.1-2h7.2L96.5,35h4.8l-3.9,2.9H92.6z M89.7,35c1.1,0,2.1-0.4,3.1-1.1
			c1-0.7,1.7-1.7,2.1-2.7l1.3-3.8h-3.8c-1.1,0-2.1,0.4-3.1,1.1c-1,0.8-1.7,1.7-2.1,2.7c-0.4,1.1-0.3,2,0.2,2.7
			C87.9,34.7,88.7,35,89.7,35z"/>
		<path class="st1" d="M114,27.3c0.4,1.1,0.3,2.4-0.2,3.8c-0.7,1.9-1.9,3.5-3.6,4.8c-1.8,1.3-3.6,2-5.5,2c-1.9,0-3.2-0.7-4.1-2
			c-0.8-1.3-0.9-2.9-0.3-4.8l4.4-12.5h2.9l-4.4,12.5c-0.4,1.1-0.3,2,0.2,2.7c0.5,0.8,1.3,1.1,2.3,1.1c1.1,0,2.1-0.4,3.1-1.1
			c1-0.7,1.7-1.7,2.1-2.7c0.4-1.1,0.3-2-0.2-2.7c-0.5-0.7-1.3-1.1-2.3-1.1c-0.4,0-0.7-0.1-0.9-0.4c-0.2-0.3-0.2-0.6-0.1-1
			c0.1-0.4,0.4-0.7,0.8-1c0.4-0.3,0.8-0.4,1.2-0.4h8.7l1.9,2.9H114z"/>
	</g>
	<polygon class="st1" points="8.9,14.9 4.4,18.7 5.1,14.9 	"/>
	<polygon class="st1" points="5.7,11.1 5.1,14.9 1.3,14.9 1.9,11.1 	"/>
	<polygon class="st1" points="4.4,18.7 0,22.5 0.6,18.7 	"/>
	<polygon class="st1" points="13.4,11.1 8.9,14.9 9.5,11.1 	"/>
</g>
</svg>
